<svg xmlns="http://www.w3.org/2000/svg" viewBox="0 0 306.3 27">
                    <defs>
                        <style>
                           .cls-1 {
                                fill: #000;
                            }

                            </style>
                    </defs>
                    <title>ContinueWith_Original_LogoAndTextOnly</title>
                    <g id="Layer_2" data-name="Layer 2">
                        <g id="Layer_1-2" data-name="Layer 1">
                            
                            <path class="cls-1" d="M67.05,27V0H0V27ZM27,2.61,22.33,24.34H15.07L10.5,9.3h-.06l-3,15H1.89L6.56,2.61h7.28l4.48,15.07h.06L21.45,2.61Zm20.77,0L43.2,24.34H37.35L39.29,15H32.37l-1.94,9.31H24.58L29.12,2.61H35l-1.72,8.31h6.91l1.72-8.31Zm16.81.59L63.13,7.53a11,11,0,0,0-4.82-1c-2.31,0-4.19.34-4.19,2.09,0,3.08,8.48,1.93,8.48,8.53,0,6-5.6,7.56-10.67,7.56a24.58,24.58,0,0,1-6.76-1.12l1.38-4.42a11.37,11.37,0,0,0,5.38,1.25c1.81,0,4.66-.35,4.66-2.59,0-3.49-8.48-2.18-8.48-8.31,0-5.61,4.94-7.29,9.73-7.29a17.91,17.91,0,0,1,6.7,1Z" /></g></g>
                </svg>